<svg width="322" height="350" viewBox="0 0 322 350" fill="none" xmlns="http://www.w3.org/2000/svg">
<path fill-rule="evenodd" clip-rule="evenodd" d="M177.962 0.209679C225.664 -1.96394 275.986 12.6054 304.294 51.235C331.648 88.5637 321.536 137.816 312.039 183.175C302.239 229.984 292.847 281.993 251.144 305.084C207.522 329.239 153.738 318.241 109.442 295.357C66.7026 273.278 32.9831 235.16 23.9927 187.736C15.3548 142.171 35.8476 97.9117 65.2278 62.1282C93.8978 27.2097 132.948 2.26075 177.962 0.209679Z" fill="#1A204E"/>
<g clip-path="url(#clip0_357_8398)">
<path d="M22.5274 328.716C24.2561 329.326 26.1121 329.479 27.9167 329.16C29.7213 328.84 31.4136 328.06 32.8306 326.893C36.4393 323.85 37.5709 318.839 38.4913 314.198L41.2143 300.469L35.5135 304.412C31.4135 307.248 27.2215 310.175 24.383 314.282C21.5445 318.389 20.3062 323.996 22.5862 328.44" fill="#A9161C"/>
<path d="M23.4076 346.292C22.69 341.041 21.9518 335.722 22.4563 330.415C22.9034 325.701 24.335 321.098 27.2497 317.323C28.7967 315.323 30.6792 313.609 32.8125 312.259C33.3686 311.906 33.8806 312.791 33.3269 313.143C29.6356 315.486 26.7805 318.946 25.1732 323.024C23.398 327.559 23.113 332.503 23.4188 337.321C23.6036 340.234 23.9963 343.129 24.3908 346.02C24.4219 346.15 24.4025 346.288 24.3364 346.405C24.2703 346.522 24.1625 346.609 24.0347 346.649C23.9044 346.684 23.7655 346.667 23.6482 346.6C23.5308 346.533 23.4445 346.422 23.4079 346.292L23.4076 346.292Z" fill="#125187"/>
<path d="M28.5723 337.866C29.3135 338.999 30.3326 339.92 31.5313 340.541C32.7299 341.163 34.0678 341.464 35.4159 341.416C38.8812 341.25 41.769 338.822 44.3683 336.516L52.0582 329.696L46.969 329.451C43.309 329.275 39.5546 329.11 36.0686 330.245C32.5825 331.38 29.3676 334.107 28.7302 337.732" fill="#A9161C"/>
<path d="M21.3794 349.311C24.8339 343.171 28.8404 336.347 36 334.166C37.9905 333.562 40.0777 333.346 42.1492 333.529C42.8022 333.585 42.6391 334.596 41.9875 334.54C38.5151 334.25 35.0494 335.171 32.1739 337.148C29.4067 339.04 27.2521 341.67 25.4287 344.459C24.3117 346.168 23.3112 347.949 22.3106 349.728C21.9909 350.296 21.056 349.886 21.3794 349.311Z" fill="#125187"/>
<path d="M297.786 273.516H107.338C106.751 273.516 106.189 273.281 105.774 272.864C105.359 272.447 105.126 271.882 105.125 271.293V93.6332C105.126 93.0437 105.359 92.4786 105.774 92.0618C106.189 91.6449 106.751 91.4104 107.338 91.4097H297.786C298.373 91.4104 298.936 91.6449 299.351 92.0618C299.766 92.4786 299.999 93.0437 300 93.6332V271.292C299.999 271.882 299.766 272.447 299.351 272.864C298.936 273.281 298.373 273.515 297.786 273.516V273.516Z" fill="white"/>
<path d="M297.786 273.516H107.338C106.751 273.516 106.189 273.281 105.774 272.864C105.359 272.447 105.126 271.882 105.125 271.293V93.6332C105.126 93.0437 105.359 92.4786 105.774 92.0618C106.189 91.6449 106.751 91.4104 107.338 91.4097H297.786C298.373 91.4104 298.936 91.6449 299.351 92.0618C299.766 92.4786 299.999 93.0437 300 93.6332V271.292C299.999 271.882 299.766 272.447 299.351 272.864C298.936 273.281 298.373 273.515 297.786 273.516V273.516ZM107.338 92.2973C106.987 92.2981 106.65 92.4388 106.401 92.6886C106.152 92.9384 106.012 93.277 106.011 93.6303V271.292C106.012 271.646 106.152 271.984 106.401 272.234C106.65 272.484 106.987 272.625 107.338 272.625H297.786C298.138 272.625 298.475 272.484 298.724 272.234C298.973 271.984 299.113 271.646 299.113 271.292V93.6332C299.113 93.2799 298.973 92.9413 298.724 92.6915C298.475 92.4417 298.138 92.301 297.786 92.3002L107.338 92.2973Z" fill="#CACACA"/>
<path d="M197.328 137.575C196.93 137.576 196.549 137.735 196.267 138.018C195.986 138.301 195.828 138.685 195.828 139.085C195.828 139.485 195.986 139.868 196.267 140.151C196.549 140.434 196.93 140.593 197.328 140.594H279.79C280.188 140.593 280.569 140.434 280.851 140.151C281.132 139.868 281.29 139.485 281.29 139.085C281.29 138.685 281.132 138.301 280.851 138.018C280.569 137.735 280.188 137.576 279.79 137.575H197.328Z" fill="#E4E4E4"/>
<path d="M197.329 146.633C196.931 146.634 196.549 146.794 196.268 147.077C195.987 147.36 195.829 147.743 195.829 148.143C195.829 148.543 195.987 148.926 196.268 149.209C196.549 149.492 196.931 149.651 197.329 149.652H239.427C239.825 149.651 240.206 149.492 240.487 149.209C240.768 148.926 240.926 148.543 240.926 148.143C240.926 147.743 240.768 147.36 240.487 147.077C240.206 146.794 239.825 146.634 239.427 146.633H197.329Z" fill="#E4E4E4"/>
<path d="M125.255 195.345C124.857 195.346 124.475 195.506 124.194 195.789C123.913 196.072 123.755 196.455 123.755 196.855C123.755 197.254 123.913 197.638 124.194 197.921C124.475 198.204 124.857 198.363 125.255 198.364H279.87C280.268 198.363 280.649 198.204 280.93 197.921C281.211 197.638 281.369 197.254 281.369 196.855C281.369 196.455 281.211 196.072 280.93 195.789C280.649 195.506 280.268 195.346 279.87 195.345H125.255Z" fill="#E4E4E4"/>
<path d="M125.255 204.403C124.857 204.404 124.475 204.564 124.194 204.847C123.913 205.13 123.755 205.513 123.755 205.913C123.755 206.312 123.913 206.696 124.194 206.979C124.475 207.262 124.857 207.421 125.255 207.422H239.507C239.905 207.421 240.286 207.262 240.567 206.979C240.848 206.696 241.006 206.312 241.006 205.913C241.006 205.513 240.848 205.13 240.567 204.847C240.286 204.564 239.905 204.404 239.507 204.403H125.255Z" fill="#E4E4E4"/>
<path d="M125.255 213.256C124.857 213.257 124.475 213.417 124.194 213.7C123.913 213.983 123.755 214.366 123.755 214.766C123.755 215.166 123.913 215.549 124.194 215.832C124.475 216.115 124.857 216.275 125.255 216.276H279.87C280.268 216.275 280.649 216.115 280.93 215.832C281.211 215.549 281.369 215.166 281.369 214.766C281.369 214.366 281.211 213.983 280.93 213.7C280.649 213.417 280.268 213.257 279.87 213.256H125.255Z" fill="#E4E4E4"/>
<path d="M125.255 222.315C124.857 222.316 124.475 222.475 124.194 222.758C123.913 223.041 123.755 223.425 123.755 223.824C123.755 224.224 123.913 224.607 124.194 224.89C124.475 225.173 124.857 225.333 125.255 225.334H239.507C239.905 225.333 240.286 225.173 240.567 224.89C240.848 224.607 241.006 224.224 241.006 223.824C241.006 223.425 240.848 223.041 240.567 222.758C240.286 222.475 239.905 222.316 239.507 222.315H125.255Z" fill="#E4E4E4"/>
<path d="M125.255 231.404C124.857 231.405 124.475 231.564 124.194 231.847C123.913 232.13 123.755 232.514 123.755 232.913C123.755 233.313 123.913 233.696 124.194 233.979C124.475 234.262 124.857 234.422 125.255 234.423H279.87C280.268 234.422 280.649 234.262 280.93 233.979C281.211 233.696 281.369 233.313 281.369 232.913C281.369 232.514 281.211 232.13 280.93 231.847C280.649 231.564 280.268 231.405 279.87 231.404H125.255Z" fill="#E4E4E4"/>
<path d="M125.255 240.462C124.857 240.463 124.475 240.622 124.194 240.905C123.913 241.188 123.755 241.572 123.755 241.971C123.755 242.371 123.913 242.755 124.194 243.038C124.475 243.321 124.857 243.48 125.255 243.481H239.507C239.905 243.48 240.286 243.321 240.567 243.038C240.848 242.755 241.006 242.371 241.006 241.971C241.006 241.572 240.848 241.188 240.567 240.905C240.286 240.622 239.905 240.463 239.507 240.462H125.255Z" fill="#E4E4E4"/>
<path d="M149.744 165.302C145.474 165.302 141.299 164.03 137.749 161.647C134.198 159.264 131.431 155.876 129.797 151.913C128.162 147.95 127.735 143.59 128.568 139.383C129.401 135.175 131.457 131.311 134.477 128.278C137.496 125.245 141.343 123.179 145.532 122.342C149.72 121.505 154.061 121.935 158.006 123.576C161.952 125.218 165.324 127.998 167.696 131.564C170.069 135.131 171.335 139.324 171.335 143.614C171.329 149.364 169.052 154.876 165.004 158.942C160.956 163.008 155.468 165.295 149.744 165.302Z" fill="#A9161C"/>
<path d="M84.2039 247.306C84.1666 246.515 83.9569 245.741 83.5896 245.039C83.2224 244.338 82.7065 243.726 82.0783 243.247C81.4502 242.767 80.725 242.432 79.9538 242.264C79.1827 242.097 78.3844 242.101 77.6151 242.277L70.4784 232.174L63.3087 235.033L73.5866 249.158C73.9665 250.437 74.8001 251.531 75.9295 252.233C77.0588 252.936 78.4054 253.198 79.7141 252.969C81.0229 252.741 82.2028 252.038 83.0302 250.995C83.8577 249.951 84.2753 248.639 84.2039 247.306H84.2039Z" fill="#A0616A"/>
<path d="M70.2949 246.558L48.7004 218.417L56.7917 192.873C57.3846 186.451 61.3853 184.658 61.5555 184.585L61.8152 184.473L68.8561 203.333L63.6864 217.181L76.3752 238.618L70.2949 246.558Z" fill="#73A3CB"/>
<path d="M145.289 159.81C144.506 159.908 143.754 160.178 143.086 160.6C142.418 161.022 141.851 161.586 141.424 162.252C140.996 162.919 140.72 163.671 140.613 164.456C140.506 165.241 140.572 166.04 140.806 166.797L131.331 174.726L134.723 181.685L147.948 170.3C149.187 169.82 150.209 168.901 150.819 167.716C151.429 166.53 151.584 165.161 151.257 163.868C150.929 162.575 150.14 161.448 149.04 160.7C147.94 159.952 146.606 159.635 145.289 159.81Z" fill="#A0616A"/>
<path d="M145.621 173.798L119.36 197.6L93.3812 191.472C86.9611 191.374 84.8719 187.506 84.786 187.342L84.6549 187.09L102.831 178.58L116.975 182.687L137.27 168.322L145.621 173.798Z" fill="#73A3CB"/>
<path d="M100.133 343.009L107.189 343.009L110.545 315.671L100.132 315.671L100.133 343.009Z" fill="#FFB8B8"/>
<path d="M120.797 349.589L98.6212 349.59L98.6208 340.984L114.575 340.983C116.225 340.983 117.807 341.642 118.974 342.814C120.141 343.985 120.796 345.575 120.796 347.232L120.797 349.589L120.797 349.589Z" fill="#2F2E41"/>
<path d="M71.932 343.009L78.9879 343.009L82.3446 315.671L71.9312 315.671L71.932 343.009Z" fill="#FFB8B8"/>
<path d="M92.5958 349.589L70.4205 349.59L70.4201 340.984L86.3741 340.983C87.1911 340.983 88.0001 341.145 88.7549 341.459C89.5097 341.773 90.1956 342.233 90.7733 342.814C91.3511 343.394 91.8094 344.083 92.122 344.841C92.4347 345.599 92.5957 346.412 92.5957 347.232L92.5958 349.589Z" fill="#2F2E41"/>
<path d="M69 243L69.5755 283.468L70.1514 336.654L82.8125 335.498L89.1435 262.078L97.201 335.498H110.272L111.589 261.5L106.985 245.313L69 243Z" fill="#2F2E41"/>
<path d="M94.2044 248.657C80.4279 248.659 67.7467 242.395 67.5756 242.309L67.4333 242.238L66.2772 214.368C65.942 213.383 59.3405 193.95 58.2225 187.773C57.0897 181.515 73.5073 176.022 75.501 175.38L75.9535 170.346L94.3515 168.354L96.6833 174.796L103.284 177.282C104.032 177.564 104.651 178.112 105.024 178.822C105.397 179.532 105.498 180.355 105.307 181.135L101.639 196.12L110.598 245.699L108.669 245.783C104.046 247.88 99.0558 248.657 94.2044 248.657Z" fill="#1665A9"/>
<path d="M92.2265 163.535C98.6459 160.01 101.005 151.925 97.4959 145.477C93.9867 139.029 85.9381 136.659 79.5187 140.184C73.0993 143.709 70.7401 151.794 74.2493 158.242C77.7585 164.69 85.8071 167.06 92.2265 163.535Z" fill="#FFB8B8"/>
<path d="M75.1438 164.741C77.6683 167.442 82.3566 165.992 82.6856 162.302C82.7114 162.015 82.7095 161.727 82.68 161.441C82.5102 159.806 81.5701 158.322 81.7952 156.596C81.8462 156.167 82.0055 155.757 82.2581 155.407C84.2698 152.701 88.9921 156.617 90.8907 154.168C92.0548 152.666 90.6864 150.301 91.5797 148.622C92.7588 146.406 96.2513 147.499 98.4414 146.286C100.878 144.936 100.732 141.18 99.1284 138.896C97.1721 136.11 93.7423 134.623 90.3552 134.409C86.968 134.195 83.6042 135.115 80.4421 136.353C76.8492 137.759 73.2863 139.703 71.0753 142.876C68.3865 146.736 68.1277 151.924 69.4725 156.437C70.2905 159.182 73.0823 162.535 75.1438 164.741Z" fill="#2F2E41"/>
<path d="M148.497 151.805C148.108 151.806 147.733 151.658 147.448 151.391L140.329 144.749C140.029 144.469 139.853 144.081 139.838 143.671C139.823 143.261 139.971 142.861 140.249 142.56C140.528 142.26 140.913 142.082 141.322 142.067C141.73 142.051 142.128 142.199 142.428 142.479L148.458 148.105L160.389 136.121C160.532 135.976 160.702 135.861 160.889 135.782C161.077 135.704 161.278 135.663 161.481 135.663C161.684 135.662 161.885 135.702 162.072 135.78C162.26 135.858 162.431 135.972 162.574 136.117C162.718 136.261 162.831 136.432 162.909 136.621C162.986 136.809 163.026 137.011 163.026 137.215C163.025 137.419 162.985 137.621 162.907 137.809C162.828 137.997 162.714 138.168 162.57 138.312L149.588 151.352C149.445 151.496 149.275 151.61 149.088 151.688C148.901 151.766 148.7 151.806 148.497 151.805Z" fill="white"/>
</g>
<defs>
<clipPath id="clip0_357_8398">
<rect width="300" height="258.59" fill="white" transform="translate(0 91.4097)"/>
</clipPath>
</defs>
</svg>
