<svg width="420" height="400" viewBox="0 0 420 400" fill="none" xmlns="http://www.w3.org/2000/svg">
<g filter="url(#filter0_b_93_15210)">
<rect width="420" height="400" fill="#CECECE"/>
<g clip-path="url(#clip0_93_15210)">
<path d="M210 200C219.889 200 229.556 197.067 237.779 191.573C246.001 186.079 252.41 178.27 256.194 169.134C259.978 159.997 260.969 149.944 259.039 140.245C257.11 130.546 252.348 121.637 245.355 114.644C238.363 107.652 229.454 102.89 219.755 100.96C210.055 99.031 200.002 100.021 190.866 103.806C181.73 107.59 173.921 113.999 168.427 122.221C162.932 130.443 160 140.11 160 150C160.013 163.256 165.285 175.966 174.659 185.34C184.033 194.714 196.743 199.986 210 200ZM210 116.666C216.593 116.666 223.037 118.621 228.519 122.284C234.001 125.947 238.273 131.153 240.796 137.243C243.319 143.334 243.979 150.037 242.693 156.503C241.407 162.969 238.232 168.908 233.57 173.57C228.908 178.232 222.969 181.406 216.503 182.692C210.037 183.979 203.335 183.318 197.244 180.796C191.153 178.273 185.947 174 182.284 168.519C178.622 163.037 176.667 156.592 176.667 150C176.667 141.159 180.179 132.681 186.43 126.429C192.681 120.178 201.159 116.666 210 116.666V116.666Z" fill="#C1C1C1"/>
<path d="M210 216.672C190.116 216.694 171.052 224.603 156.991 238.663C142.931 252.724 135.022 271.787 135 291.672C135 293.882 135.878 296.002 137.441 297.564C139.004 299.127 141.123 300.005 143.333 300.005C145.543 300.005 147.663 299.127 149.226 297.564C150.789 296.002 151.667 293.882 151.667 291.672C151.667 276.201 157.812 261.364 168.752 250.424C179.692 239.484 194.529 233.339 210 233.339C225.471 233.339 240.308 239.484 251.248 250.424C262.188 261.364 268.333 276.201 268.333 291.672C268.333 293.882 269.211 296.002 270.774 297.564C272.337 299.127 274.457 300.005 276.667 300.005C278.877 300.005 280.996 299.127 282.559 297.564C284.122 296.002 285 293.882 285 291.672C284.978 271.787 277.069 252.724 263.009 238.663C248.948 224.603 229.884 216.694 210 216.672V216.672Z" fill="#C1C1C1"/>
</g>
</g>
<defs>
<filter id="filter0_b_93_15210" x="-4" y="-4" width="428" height="408" filterUnits="userSpaceOnUse" color-interpolation-filters="sRGB">
<feFlood flood-opacity="0" result="BackgroundImageFix"/>
<feGaussianBlur in="BackgroundImageFix" stdDeviation="2"/>
<feComposite in2="SourceAlpha" operator="in" result="effect1_backgroundBlur_93_15210"/>
<feBlend mode="normal" in="SourceGraphic" in2="effect1_backgroundBlur_93_15210" result="shape"/>
</filter>
<clipPath id="clip0_93_15210">
<rect width="200" height="200" fill="white" transform="translate(110 100)"/>
</clipPath>
</defs>
</svg>
